<svg width="120" height="114" viewBox="0 0 120 114" fill="none" xmlns="http://www.w3.org/2000/svg">
<g filter="url(#filter0_d_2057_42)">
<path d="M20 13.7511C20 11.1271 22.1271 9 24.7511 9H95.2489C97.8728 9 100 11.1271 100 13.7511V84.2489C100 86.8728 97.8728 89 95.2489 89H24.7511C22.1271 89 20 86.8728 20 84.2489V13.7511Z" fill="#6845E5"/>
</g>
<path d="M56.3 49L41 74L41.0001 24L56.3 49Z" fill="url(#paint0_linear_2057_42)"/>
<path d="M85 49L41 74L56.2 49H85Z" fill="url(#paint1_linear_2057_42)"/>
<path d="M85 49H56.2L41 24L85 49Z" fill="url(#paint2_linear_2057_42)"/>
<defs>
<filter id="filter0_d_2057_42" x="16" y="9" width="88" height="88" filterUnits="userSpaceOnUse" color-interpolation-filters="sRGB">
<feFlood flood-opacity="0" result="BackgroundImageFix"/>
<feColorMatrix in="SourceAlpha" type="matrix" values="0 0 0 0 0 0 0 0 0 0 0 0 0 0 0 0 0 0 127 0" result="hardAlpha"/>
<feOffset dy="4"/>
<feGaussianBlur stdDeviation="2"/>
<feComposite in2="hardAlpha" operator="out"/>
<feColorMatrix type="matrix" values="0 0 0 0 0 0 0 0 0 0 0 0 0 0 0 0 0 0 0.25 0"/>
<feBlend mode="normal" in2="BackgroundImageFix" result="effect1_dropShadow_2057_42"/>
<feBlend mode="normal" in="SourceGraphic" in2="effect1_dropShadow_2057_42" result="shape"/>
</filter>
<linearGradient id="paint0_linear_2057_42" x1="57.0001" y1="57.5" x2="38.0001" y2="57.5" gradientUnits="userSpaceOnUse">
<stop stop-color="white"/>
<stop offset="1" stop-color="white" stop-opacity="0.6"/>
</linearGradient>
<linearGradient id="paint1_linear_2057_42" x1="80.6831" y1="73.3773" x2="61.8177" y2="42.226" gradientUnits="userSpaceOnUse">
<stop stop-color="white"/>
<stop offset="1" stop-color="white" stop-opacity="0.6"/>
</linearGradient>
<linearGradient id="paint2_linear_2057_42" x1="68.5166" y1="30.6667" x2="45.0885" y2="37.312" gradientUnits="userSpaceOnUse">
<stop stop-color="white"/>
<stop offset="1" stop-color="white" stop-opacity="0.6"/>
</linearGradient>
</defs>
</svg>
